<svg xmlns="http://www.w3.org/2000/svg" xmlns:xlink="http://www.w3.org/1999/xlink" width="64" zoomAndPan="magnify" viewBox="124 76 128 128" height="64" preserveAspectRatio="xMidYMid meet" version="1.0"><defs><g><g id="id1"/></g><clipPath id="id2"><path d="M 147 105 L 214 105 L 214 194.039062 L 147 194.039062 Z M 147 105 " clip-rule="nonzero"/></clipPath><clipPath id="id3"><path d="M 173 142 L 246.554688 142 L 246.554688 192 L 173 192 Z M 173 142 " clip-rule="nonzero"/></clipPath><clipPath id="id4"><path d="M 128.804688 104.789062 L 185 104.789062 L 185 192 L 128.804688 192 Z M 128.804688 104.789062 " clip-rule="nonzero"/></clipPath></defs><rect x="-37.5" width="450" fill="rgb(100%, 100%, 100%)" y="-37.499999" height="449.999989" fill-opacity="1"/><rect x="-37.5" width="450" fill="rgb(100%, 100%, 100%)" y="-37.499999" height="449.999989" fill-opacity="1"/><rect x="-37.5" width="450" fill="rgb(100%, 100%, 100%)" y="-37.499999" height="449.999989" fill-opacity="1"/><rect x="-37.5" width="450" fill="rgb(100%, 100%, 100%)" y="-37.499999" height="449.999989" fill-opacity="1"/><g clip-path="url(#id2)"><path fill="rgb(16.468811%, 51.759338%, 100%)" d="M 197.800781 190.460938 C 196.589844 190.460938 195.605469 189.480469 195.605469 188.269531 C 195.605469 187.058594 196.589844 186.078125 197.800781 186.078125 C 199.015625 186.078125 200 187.058594 200 188.269531 C 200 189.480469 199.015625 190.460938 197.800781 190.460938 Z M 207.8125 128.894531 C 206.597656 128.894531 205.613281 127.914062 205.613281 126.703125 C 205.613281 125.492188 206.597656 124.511719 207.8125 124.511719 C 209.027344 124.511719 210.011719 125.492188 210.011719 126.703125 C 210.011719 127.914062 209.027344 128.894531 207.8125 128.894531 Z M 197.800781 182.511719 C 195.835938 182.511719 194.101562 183.492188 193.058594 184.988281 L 156.582031 184.941406 L 197.039062 114.429688 L 202.675781 124.074219 C 202.269531 124.863281 202.035156 125.753906 202.035156 126.703125 C 202.035156 129.882812 204.625 132.460938 207.8125 132.460938 C 211.003906 132.460938 213.589844 129.882812 213.589844 126.703125 C 213.589844 123.679688 211.25 121.203125 208.28125 120.964844 L 199.105469 105.808594 C 199.105469 105.808594 196.390625 103.140625 193.320312 108.457031 L 148.902344 185.285156 C 148.902344 185.285156 145.0625 190.878906 151.265625 191.171875 L 192.816406 191.171875 C 193.816406 192.878906 195.675781 194.027344 197.800781 194.027344 C 200.992188 194.027344 203.578125 191.449219 203.578125 188.269531 C 203.578125 185.089844 200.992188 182.511719 197.800781 182.511719 Z M 197.800781 182.511719 " fill-opacity="1" fill-rule="nonzero"/></g><g clip-path="url(#id3)"><path fill="rgb(27.839661%, 27.449036%, 27.449036%)" d="M 194.574219 142.324219 C 199.632812 142.203125 216.472656 141.667969 219.222656 143.046875 C 220.773438 143.824219 222.660156 147.820312 223.613281 149.265625 C 229.59375 158.304688 245.46875 185.578125 245.46875 185.578125 C 245.46875 185.578125 248.714844 189.992188 243.988281 191.171875 L 218.59375 191.171875 C 218.59375 191.171875 217.117188 191.546875 215.347656 188.269531 L 205.011719 170.273438 L 180.667969 170.273438 L 180.664062 170.285156 L 173.628906 170.285156 C 177.421875 163.8125 185.121094 150.742188 190.355469 142.324219 Z M 194.574219 142.324219 " fill-opacity="1" fill-rule="nonzero"/></g><g clip-path="url(#id4)"><path fill="rgb(16.468811%, 51.759338%, 100%)" d="M 134.625 187.71875 C 135.839844 187.71875 136.824219 186.738281 136.824219 185.527344 C 136.824219 184.316406 135.839844 183.335938 134.625 183.335938 C 133.410156 183.335938 132.425781 184.316406 132.425781 185.527344 C 132.425781 186.738281 133.410156 187.71875 134.625 187.71875 Z M 175.585938 115.347656 C 175.601562 115.359375 175.621094 115.371094 175.636719 115.382812 Z M 177.214844 116.078125 C 177.242188 116.085938 177.265625 116.09375 177.292969 116.097656 Z M 177.441406 116.132812 C 177.460938 116.136719 177.476562 116.136719 177.492188 116.140625 C 177.476562 116.136719 177.460938 116.136719 177.441406 116.132812 Z M 178.65625 116.257812 L 169.253906 132.648438 L 139.875 183.371094 L 139.871094 183.367188 C 140.128906 184.019531 140.269531 184.726562 140.269531 185.472656 C 140.269531 188.652344 137.683594 191.230469 134.492188 191.230469 C 132.367188 191.230469 130.507812 190.082031 129.507812 188.375 L 129.453125 188.375 C 128.957031 187.519531 128.671875 186.53125 128.671875 185.472656 C 128.671875 184.253906 129.050781 183.121094 129.695312 182.191406 L 129.746094 182.191406 C 130.789062 180.695312 132.527344 179.714844 134.492188 179.714844 C 134.59375 179.714844 134.691406 179.714844 134.789062 179.722656 L 173.386719 112.957031 L 173.402344 112.992188 C 173.039062 112.238281 172.839844 111.394531 172.839844 110.5 C 172.839844 109.285156 173.214844 108.152344 173.859375 107.21875 L 173.914062 107.21875 C 174.957031 105.722656 176.691406 104.742188 178.65625 104.742188 C 181.847656 104.742188 184.433594 107.320312 184.433594 110.5 C 184.433594 113.679688 181.847656 116.257812 178.65625 116.257812 Z M 139.859375 183.34375 C 139.847656 183.308594 139.835938 183.277344 139.820312 183.246094 C 139.835938 183.277344 139.847656 183.308594 139.859375 183.34375 Z M 139.808594 183.214844 C 139.792969 183.183594 139.78125 183.152344 139.765625 183.121094 C 139.78125 183.152344 139.792969 183.183594 139.808594 183.214844 Z M 139.757812 183.097656 C 139.738281 183.058594 139.722656 183.019531 139.703125 182.984375 C 139.722656 183.019531 139.738281 183.058594 139.757812 183.097656 Z M 139.691406 182.957031 C 139.675781 182.925781 139.660156 182.898438 139.644531 182.867188 C 139.660156 182.898438 139.675781 182.925781 139.691406 182.957031 Z M 139.628906 182.835938 C 139.613281 182.804688 139.59375 182.769531 139.578125 182.738281 C 139.59375 182.769531 139.613281 182.804688 139.628906 182.835938 Z M 139.570312 182.722656 C 139.550781 182.6875 139.53125 182.652344 139.507812 182.613281 C 139.53125 182.652344 139.550781 182.6875 139.570312 182.722656 Z M 139.492188 182.585938 C 139.476562 182.558594 139.460938 182.53125 139.445312 182.503906 C 139.460938 182.53125 139.476562 182.558594 139.492188 182.585938 Z M 139.425781 182.472656 C 139.402344 182.441406 139.382812 182.40625 139.359375 182.371094 C 139.382812 182.40625 139.402344 182.4375 139.425781 182.472656 Z M 139.359375 182.367188 C 139.335938 182.332031 139.3125 182.296875 139.289062 182.265625 C 139.3125 182.300781 139.335938 182.332031 139.359375 182.367188 Z M 139.269531 182.234375 C 139.253906 182.207031 139.234375 182.183594 139.214844 182.15625 C 139.234375 182.183594 139.253906 182.207031 139.269531 182.234375 Z M 139.195312 182.128906 C 139.171875 182.09375 139.148438 182.0625 139.125 182.027344 C 139.148438 182.0625 139.171875 182.09375 139.195312 182.128906 Z M 139.113281 182.015625 C 139.09375 181.988281 139.070312 181.957031 139.046875 181.929688 C 139.070312 181.957031 139.09375 181.988281 139.113281 182.015625 Z M 139.023438 181.902344 C 139.003906 181.875 138.984375 181.851562 138.964844 181.824219 C 138.984375 181.851562 139.003906 181.875 139.023438 181.902344 Z M 138.945312 181.800781 C 138.917969 181.769531 138.890625 181.738281 138.863281 181.707031 C 138.890625 181.738281 138.917969 181.769531 138.945312 181.800781 Z M 138.847656 181.691406 C 138.828125 181.664062 138.804688 181.640625 138.78125 181.613281 C 138.804688 181.640625 138.828125 181.664062 138.847656 181.691406 Z M 138.753906 181.585938 C 138.734375 181.5625 138.710938 181.539062 138.6875 181.511719 C 138.710938 181.539062 138.734375 181.5625 138.753906 181.585938 Z M 138.671875 181.496094 C 138.640625 181.464844 138.613281 181.4375 138.582031 181.40625 C 138.613281 181.4375 138.640625 181.464844 138.671875 181.496094 Z M 138.5625 181.382812 C 138.539062 181.363281 138.515625 181.339844 138.492188 181.316406 C 138.515625 181.339844 138.539062 181.363281 138.5625 181.382812 Z M 138.464844 181.292969 C 138.4375 181.265625 138.410156 181.242188 138.382812 181.21875 C 138.410156 181.242188 138.4375 181.265625 138.464844 181.292969 Z M 138.375 181.207031 C 138.34375 181.179688 138.3125 181.152344 138.28125 181.125 C 138.3125 181.152344 138.34375 181.179688 138.375 181.207031 Z M 138.253906 181.105469 C 138.230469 181.082031 138.207031 181.0625 138.183594 181.042969 C 138.207031 181.0625 138.230469 181.082031 138.253906 181.105469 Z M 138.058594 180.941406 C 138.027344 180.917969 137.992188 180.890625 137.960938 180.867188 C 137.992188 180.890625 138.027344 180.917969 138.058594 180.941406 Z M 137.929688 180.84375 C 137.90625 180.824219 137.878906 180.808594 137.855469 180.789062 C 137.878906 180.808594 137.90625 180.824219 137.929688 180.84375 Z M 137.828125 180.769531 C 137.792969 180.746094 137.761719 180.722656 137.726562 180.699219 C 137.757812 180.722656 137.792969 180.746094 137.828125 180.769531 Z M 137.707031 180.6875 C 137.679688 180.667969 137.648438 180.648438 137.621094 180.632812 C 137.648438 180.648438 137.679688 180.667969 137.707031 180.6875 Z M 137.589844 180.609375 C 137.5625 180.59375 137.53125 180.574219 137.503906 180.558594 C 137.53125 180.574219 137.558594 180.59375 137.589844 180.609375 Z M 137.480469 180.542969 C 137.445312 180.523438 137.410156 180.5 137.375 180.480469 C 137.410156 180.5 137.445312 180.523438 137.480469 180.542969 Z M 137.347656 180.464844 C 137.320312 180.449219 137.292969 180.433594 137.261719 180.417969 C 137.292969 180.433594 137.320312 180.449219 137.347656 180.464844 Z M 137.230469 180.402344 C 137.199219 180.382812 137.167969 180.367188 137.136719 180.351562 C 137.167969 180.367188 137.199219 180.382812 137.230469 180.402344 Z M 137.117188 180.339844 C 137.082031 180.324219 137.042969 180.304688 137.003906 180.285156 C 137.042969 180.304688 137.082031 180.324219 137.117188 180.339844 Z M 136.976562 180.273438 C 136.949219 180.257812 136.917969 180.246094 136.890625 180.230469 C 136.917969 180.246094 136.949219 180.257812 136.976562 180.273438 Z M 136.855469 180.214844 C 136.820312 180.199219 136.785156 180.1875 136.75 180.171875 C 136.785156 180.1875 136.820312 180.199219 136.855469 180.214844 Z M 136.738281 180.164062 C 136.699219 180.148438 136.660156 180.132812 136.621094 180.117188 C 136.660156 180.132812 136.699219 180.148438 136.738281 180.164062 Z M 136.589844 180.105469 C 136.558594 180.09375 136.527344 180.082031 136.5 180.070312 C 136.527344 180.082031 136.558594 180.09375 136.589844 180.105469 Z M 136.464844 180.058594 C 136.425781 180.042969 136.386719 180.03125 136.347656 180.015625 C 136.386719 180.03125 136.425781 180.042969 136.464844 180.058594 Z M 136.339844 180.015625 C 136.300781 180 136.261719 179.988281 136.226562 179.976562 C 136.261719 179.988281 136.300781 180 136.339844 180.015625 Z M 136.1875 179.964844 C 136.15625 179.957031 136.128906 179.949219 136.097656 179.9375 C 136.128906 179.949219 136.15625 179.957031 136.1875 179.964844 Z M 136.0625 179.929688 C 136.023438 179.917969 135.980469 179.90625 135.941406 179.894531 C 135.980469 179.90625 136.023438 179.917969 136.0625 179.929688 Z M 135.921875 179.890625 C 135.886719 179.882812 135.851562 179.875 135.8125 179.867188 C 135.851562 179.875 135.886719 179.882812 135.921875 179.890625 Z M 135.777344 179.855469 C 135.742188 179.851562 135.710938 179.84375 135.675781 179.835938 C 135.710938 179.84375 135.742188 179.851562 135.777344 179.855469 Z M 135.648438 179.828125 C 135.605469 179.820312 135.566406 179.8125 135.523438 179.804688 C 135.566406 179.8125 135.605469 179.820312 135.648438 179.828125 Z M 135.496094 179.800781 C 135.460938 179.792969 135.425781 179.789062 135.394531 179.785156 C 135.425781 179.789062 135.460938 179.792969 135.496094 179.800781 Z M 135.355469 179.777344 C 135.316406 179.773438 135.28125 179.765625 135.242188 179.761719 C 135.28125 179.765625 135.316406 179.773438 135.355469 179.777344 Z M 135.222656 179.761719 C 135.179688 179.753906 135.136719 179.75 135.09375 179.746094 C 135.136719 179.75 135.179688 179.753906 135.222656 179.761719 Z M 135.0625 179.742188 C 135.027344 179.738281 134.992188 179.734375 134.960938 179.734375 C 134.992188 179.734375 135.027344 179.738281 135.0625 179.742188 Z M 134.921875 179.730469 C 134.878906 179.726562 134.835938 179.722656 134.792969 179.722656 C 134.835938 179.722656 134.878906 179.726562 134.921875 179.730469 Z M 173.445312 113.085938 C 173.457031 113.109375 173.46875 113.132812 173.480469 113.15625 C 173.46875 113.132812 173.457031 113.109375 173.445312 113.085938 Z M 173.597656 113.371094 C 173.605469 113.382812 173.613281 113.394531 173.617188 113.40625 Z M 178.65625 112.691406 C 179.871094 112.691406 180.855469 111.710938 180.855469 110.503906 C 180.855469 109.292969 179.871094 108.3125 178.65625 108.3125 C 177.445312 108.3125 176.460938 109.292969 176.460938 110.503906 C 176.460938 111.710938 177.445312 112.691406 178.65625 112.691406 Z M 178.65625 116.257812 C 178.625 116.257812 178.589844 116.257812 178.558594 116.257812 C 178.523438 116.257812 178.492188 116.257812 178.460938 116.257812 L 178.457031 116.257812 C 178.425781 116.253906 178.394531 116.253906 178.359375 116.253906 C 178.328125 116.25 178.292969 116.25 178.261719 116.246094 C 178.230469 116.242188 178.195312 116.242188 178.164062 116.238281 C 178.132812 116.234375 178.097656 116.234375 178.066406 116.230469 C 178.035156 116.226562 178.003906 116.222656 177.96875 116.21875 C 177.9375 116.214844 177.90625 116.210938 177.875 116.207031 L 177.871094 116.207031 C 177.839844 116.203125 177.808594 116.199219 177.777344 116.191406 C 177.746094 116.1875 177.714844 116.183594 177.683594 116.179688 L 177.679688 116.179688 C 177.648438 116.171875 177.617188 116.167969 177.585938 116.160156 C 177.554688 116.15625 177.523438 116.148438 177.492188 116.144531 Z M 139.21875 181.058594 L 139.222656 181.058594 C 139.253906 181.085938 139.285156 181.113281 139.320312 181.136719 L 139.34375 181.160156 Z M 139.21875 181.058594 " fill-opacity="1" fill-rule="nonzero"/></g><g fill="rgb(27.839661%, 27.449036%, 27.449036%)" fill-opacity="1"><g transform="translate(143.453806, 231.033326)"><g><path d="M 12.0625 -25.828125 C 15.3125 -25.828125 16.9375 -24.097656 16.9375 -20.640625 L 16.9375 0 L 11.4375 0 L 11.4375 -8.53125 L 7.46875 -8.53125 L 7.46875 0 L 1.96875 0 L 1.96875 -20.640625 C 1.96875 -24.097656 3.59375 -25.828125 6.84375 -25.828125 Z M 7.46875 -12.78125 L 11.4375 -12.78125 L 11.4375 -21.3125 C 11.4375 -21.519531 11.363281 -21.703125 11.21875 -21.859375 C 11.070312 -22.015625 10.894531 -22.09375 10.6875 -22.09375 L 8.21875 -22.09375 C 8.007812 -22.09375 7.832031 -22.015625 7.6875 -21.859375 C 7.539062 -21.703125 7.46875 -21.519531 7.46875 -21.3125 Z M 7.46875 -12.78125 "/></g></g></g><g fill="rgb(27.839661%, 27.449036%, 27.449036%)" fill-opacity="1"><g transform="translate(161.926818, 231.033326)"><g><path d="M 16.078125 -18.75 L 10.84375 -18.75 L 10.84375 -20.75 C 10.84375 -20.96875 10.769531 -21.15625 10.625 -21.3125 C 10.488281 -21.46875 10.316406 -21.546875 10.109375 -21.546875 L 7.9375 -21.546875 C 7.726562 -21.546875 7.550781 -21.46875 7.40625 -21.3125 C 7.257812 -21.15625 7.1875 -20.96875 7.1875 -20.75 L 7.1875 -16.234375 C 7.1875 -16.023438 7.257812 -15.84375 7.40625 -15.6875 C 7.550781 -15.53125 7.726562 -15.453125 7.9375 -15.453125 L 11.484375 -15.453125 C 14.734375 -15.398438 16.359375 -13.671875 16.359375 -10.265625 L 16.359375 -4.796875 C 16.359375 -1.335938 14.734375 0.390625 11.484375 0.390625 L 6.84375 0.390625 C 3.59375 0.390625 1.96875 -1.335938 1.96875 -4.796875 L 1.96875 -7.4375 L 7.1875 -7.4375 L 7.1875 -4.59375 C 7.1875 -4.382812 7.257812 -4.203125 7.40625 -4.046875 C 7.550781 -3.890625 7.726562 -3.8125 7.9375 -3.8125 L 10.375 -3.8125 C 10.582031 -3.8125 10.757812 -3.890625 10.90625 -4.046875 C 11.050781 -4.203125 11.125 -4.382812 11.125 -4.59375 L 11.125 -9.59375 C 11.125 -9.800781 11.050781 -9.984375 10.90625 -10.140625 C 10.757812 -10.296875 10.582031 -10.375 10.375 -10.375 L 6.84375 -10.375 C 3.59375 -10.375 1.96875 -12.101562 1.96875 -15.5625 L 1.96875 -20.640625 C 1.96875 -24.097656 3.59375 -25.828125 6.84375 -25.828125 L 11.203125 -25.828125 C 14.453125 -25.828125 16.078125 -24.097656 16.078125 -20.640625 Z M 16.078125 -18.75 "/></g></g></g><g fill="rgb(27.839661%, 27.449036%, 27.449036%)" fill-opacity="1"><g transform="translate(179.338596, 231.033326)"><g><path d="M 16.703125 -25.4375 L 11.25 -9.28125 L 11.25 0 L 5.734375 0 L 5.734375 -9.28125 L 0.28125 -25.4375 L 5.46875 -25.4375 L 8.484375 -14.828125 L 11.515625 -25.4375 Z M 16.703125 -25.4375 "/></g></g></g><g fill="rgb(27.839661%, 27.449036%, 27.449036%)" fill-opacity="1"><g transform="translate(195.846371, 231.033326)"><g><path d="M 16.546875 0 L 11.046875 0 L 11.046875 -21.109375 C 11.046875 -21.316406 10.972656 -21.5 10.828125 -21.65625 C 10.679688 -21.8125 10.503906 -21.890625 10.296875 -21.890625 L 8.171875 -21.890625 C 7.960938 -21.890625 7.785156 -21.8125 7.640625 -21.65625 C 7.503906 -21.5 7.4375 -21.316406 7.4375 -21.109375 L 7.4375 0 L 1.921875 0 L 1.921875 -20.640625 C 1.921875 -24.097656 3.546875 -25.828125 6.796875 -25.828125 L 11.671875 -25.828125 C 14.921875 -25.828125 16.546875 -24.097656 16.546875 -20.640625 Z M 16.546875 0 "/></g></g></g><g fill="rgb(27.839661%, 27.449036%, 27.449036%)" fill-opacity="1"><g transform="translate(213.533289, 231.033326)"><g><path d="M 11.4375 -4.171875 L 11.4375 -8.09375 L 16.671875 -8.09375 L 16.671875 -4.796875 C 16.671875 -1.335938 15.046875 0.390625 11.796875 0.390625 L 6.84375 0.390625 C 3.59375 0.390625 1.96875 -1.335938 1.96875 -4.796875 L 1.96875 -20.640625 C 1.96875 -24.097656 3.59375 -25.828125 6.84375 -25.828125 L 11.796875 -25.828125 C 15.046875 -25.828125 16.671875 -24.097656 16.671875 -20.640625 L 16.671875 -18.234375 L 11.4375 -18.234375 L 11.4375 -21.3125 C 11.4375 -21.519531 11.363281 -21.703125 11.21875 -21.859375 C 11.070312 -22.015625 10.894531 -22.09375 10.6875 -22.09375 L 8.21875 -22.09375 C 8.007812 -22.09375 7.832031 -22.015625 7.6875 -21.859375 C 7.539062 -21.703125 7.46875 -21.519531 7.46875 -21.3125 L 7.46875 -4.171875 C 7.46875 -3.960938 7.539062 -3.773438 7.6875 -3.609375 C 7.832031 -3.453125 8.007812 -3.375 8.21875 -3.375 L 10.6875 -3.375 C 10.894531 -3.375 11.070312 -3.453125 11.21875 -3.609375 C 11.363281 -3.773438 11.4375 -3.960938 11.4375 -4.171875 Z M 11.4375 -4.171875 "/></g></g></g></svg>